<svg width="129" height="56" viewBox="0 0 129 56" fill="none" xmlns="http://www.w3.org/2000/svg">
<path d="M51.232 41.468C49.84 41.468 48.502 41.252 47.218 40.82C45.946 40.376 44.83 39.746 43.87 38.93C42.91 38.102 42.22 37.112 41.8 35.96L45.922 34.448C46.09 34.928 46.432 35.366 46.948 35.762C47.464 36.158 48.094 36.476 48.838 36.716C49.582 36.956 50.38 37.076 51.232 37.076C52.108 37.076 52.924 36.944 53.68 36.68C54.448 36.404 55.066 36.026 55.534 35.546C56.002 35.054 56.236 34.484 56.236 33.836C56.236 33.176 55.99 32.636 55.498 32.216C55.006 31.784 54.376 31.442 53.608 31.19C52.84 30.938 52.048 30.746 51.232 30.614C49.444 30.338 47.842 29.912 46.426 29.336C45.01 28.76 43.888 27.962 43.06 26.942C42.244 25.922 41.836 24.602 41.836 22.982C41.836 21.458 42.274 20.126 43.15 18.986C44.026 17.846 45.178 16.958 46.606 16.322C48.034 15.686 49.576 15.368 51.232 15.368C52.612 15.368 53.944 15.584 55.228 16.016C56.512 16.448 57.634 17.078 58.594 17.906C59.566 18.734 60.262 19.73 60.682 20.894L56.542 22.388C56.374 21.908 56.032 21.47 55.516 21.074C55 20.678 54.37 20.366 53.626 20.138C52.882 19.898 52.084 19.778 51.232 19.778C50.38 19.766 49.57 19.904 48.802 20.192C48.046 20.468 47.428 20.846 46.948 21.326C46.468 21.806 46.228 22.358 46.228 22.982C46.228 23.786 46.45 24.392 46.894 24.8C47.35 25.208 47.956 25.508 48.712 25.7C49.468 25.88 50.308 26.048 51.232 26.204C52.912 26.468 54.466 26.912 55.894 27.536C57.322 28.16 58.468 28.994 59.332 30.038C60.196 31.07 60.628 32.336 60.628 33.836C60.628 35.36 60.196 36.698 59.332 37.85C58.468 38.99 57.322 39.878 55.894 40.514C54.466 41.15 52.912 41.468 51.232 41.468ZM64.203 23H68.595V41H64.203V23ZM66.435 20.678C65.787 20.678 65.241 20.468 64.797 20.048C64.353 19.616 64.131 19.076 64.131 18.428C64.131 17.792 64.353 17.258 64.797 16.826C65.241 16.394 65.781 16.178 66.417 16.178C67.053 16.178 67.587 16.394 68.019 16.826C68.463 17.258 68.685 17.792 68.685 18.428C68.685 19.076 68.469 19.616 68.037 20.048C67.605 20.468 67.071 20.678 66.435 20.678ZM84.2853 23H88.9473L79.1013 50H74.4393L77.6973 41L71.2173 23H76.0233L79.8933 34.988L84.2853 23ZM104.318 23H108.71V41H104.318L104.12 38.768C103.628 39.572 102.974 40.226 102.158 40.73C101.354 41.222 100.4 41.468 99.2959 41.468C97.9639 41.468 96.7159 41.216 95.5519 40.712C94.3879 40.208 93.3619 39.512 92.4739 38.624C91.5979 37.736 90.9079 36.71 90.4039 35.546C89.9119 34.382 89.6659 33.134 89.6659 31.802C89.6659 30.518 89.8999 29.312 90.3679 28.184C90.8479 27.056 91.5139 26.066 92.3659 25.214C93.2179 24.362 94.2019 23.696 95.3179 23.216C96.4339 22.736 97.6339 22.496 98.9179 22.496C100.106 22.496 101.168 22.76 102.104 23.288C103.052 23.816 103.856 24.488 104.516 25.304L104.318 23ZM99.1879 37.238C100.124 37.238 100.952 37.004 101.672 36.536C102.392 36.068 102.956 35.438 103.364 34.646C103.772 33.842 103.976 32.96 103.976 32C103.976 31.028 103.772 30.146 103.364 29.354C102.956 28.55 102.386 27.914 101.654 27.446C100.934 26.978 100.112 26.744 99.1879 26.744C98.2639 26.744 97.4179 26.984 96.6499 27.464C95.8939 27.932 95.2879 28.562 94.8319 29.354C94.3879 30.146 94.1659 31.028 94.1659 32C94.1659 32.972 94.3939 33.854 94.8499 34.646C95.3059 35.438 95.9119 36.068 96.6679 36.536C97.4359 37.004 98.2759 37.238 99.1879 37.238ZM126.949 27.392L117.895 36.608H126.949V41H111.577V36.608L120.631 27.392H111.577V23H126.949V27.392Z" fill="white"/>
<path d="M18.75 4C10.2255 9.0344 11.25 23.2187 11.25 23.2187C11.25 23.2187 7.5 21.9375 7.5 16.1719C3.02601 18.831 0 23.9421 0 29.625C0 38.1164 6.71572 45 15 45C23.2843 45 30 38.1164 30 29.625C29.9999 17.1328 18.75 14.5703 18.75 4V4ZM16.3176 39.7023C13.3034 40.4725 10.2505 38.5924 9.49887 35.5027C8.74736 32.4131 10.5816 29.2838 13.596 28.5135C20.8732 26.6538 21.7852 22.4592 21.7852 22.4592C21.7852 22.4592 25.4141 37.3775 16.3176 39.7023Z" fill="url(#paint0_linear_2037_2202)"/>
<defs>
<linearGradient id="paint0_linear_2037_2202" x1="26.25" y1="4" x2="-5.52352" y2="35.3469" gradientUnits="userSpaceOnUse">
<stop stop-color="#E250E5"/>
<stop offset="1" stop-color="#4B50E6"/>
</linearGradient>
</defs>
</svg>
